<svg xmlns="http://www.w3.org/2000/svg" xmlns:xlink="http://www.w3.org/1999/xlink" version="1.1" width="279" height="57" viewBox="0 0 279 57" xml:space="preserve">
<desc>Created with Fabric.js 3.5.0</desc>
<defs>
</defs>
<rect x="0" y="0" width="100%" height="100%" fill="rgba(255,255,255,0)"/>
<g transform="matrix(0.114 0 0 0.114 18.128 28.4923)" id="Layer_1">
<path style="stroke: none; stroke-width: 1; stroke-dasharray: none; stroke-linecap: butt; stroke-dashoffset: 0; stroke-linejoin: miter; stroke-miterlimit: 4; is-custom-font: none; font-file-url: none; fill: rgb(255,255,255); fill-rule: nonzero; opacity: 1;" transform=" translate(-438.0932, -1007.2488)" d="M 578.584 813.538 c -26.014 0 -36.229 -0.022 -62.245 -0.116 c 0 0 0.84 47.631 0.84 47.65 c -0.398 8.411 -0.25 16.907 -0.293 25.327 c -0.181 37.743 -1.36 75.486 -1.405 113.229 c -0.02 17.152 -0.99 34.366 -0.611 51.505 c 0.484 21.674 -2.996 45.953 -17.037 63.365 c -21.441 26.6 -58.168 27.03 -88.152 22.046 c -52.895 -8.805 -53.747 -80.969 -53.747 -80.969 c 1.901 -34.333 25.685 -74.602 61.851 -78.631 c 28.651 -3.196 58.912 -0.328 87.752 -0.328 c 0 0 0 -60.159 0 -60.166 c 0 0.052 -10.912 0.006 -11.368 0.003 c -18 -0.08 -35.996 0.208 -53.992 -0.107 c -21.983 -0.384 -40.885 3.81 -61.519 11.465 c -12.544 4.656 -24.418 11.15 -34.53 20.185 c -26.733 23.878 -42.503 64.428 -46.255 100.216 c -1.056 10.075 -1.013 20.255 -0.202 30.352 c 0.46 5.734 4.354 24.12 5.729 28.061 c 4.075 11.674 11.005 22.23 17.986 32.229 c 10.047 14.393 22.114 27.344 36.172 37.604 c 18.871 13.772 41.23 22.487 64.331 24.235 c 5.803 0.438 11.883 0.667 17.666 -0.254 c 18.634 0.773 38.936 -1.771 56.318 -8.897 c 24.824 -10.179 43.328 -28.157 57.968 -50.766 c 5.543 -8.563 11.485 -17.097 14.762 -26.915 c 5.666 -16.982 6.637 -37.283 6.604 -55.087 c -0.055 -30.015 0.767 -60.051 0.605 -90.079 c -0.093 -17.406 0.191 -34.84 0.255 -52.245 C 576.067 916.451 580.641 813.538 578.584 813.538 z" stroke-linecap="round"/>
</g>
<g transform="matrix(0.114 0 0 0.114 18.1319 34.7626)" id="Layer_1">
<ellipse style="stroke: none; stroke-width: 1; stroke-dasharray: none; stroke-linecap: butt; stroke-dashoffset: 0; stroke-linejoin: miter; stroke-miterlimit: 4; is-custom-font: none; font-file-url: none; fill: rgb(64,181,73); fill-rule: nonzero; opacity: 1;" cx="0" cy="0" rx="39.326" ry="40.57"/>
</g>
<g transform="matrix(0.114 0 0 0.114 48.4584 28.4071)" id="Layer_1">
<path style="stroke: none; stroke-width: 1; stroke-dasharray: none; stroke-linecap: butt; stroke-dashoffset: 0; stroke-linejoin: miter; stroke-miterlimit: 4; is-custom-font: none; font-file-url: none; fill: rgb(255,255,255); fill-rule: nonzero; opacity: 1;" transform=" translate(-704.037, -1006.5)" d="M 661.131 1192.824 V 985.089 h -42.944 v -41.57 h 42.944 V 897.14 c 0 -23.452 7.014 -41.727 21.442 -55.867 c 14.49 -14.195 33.306 -21.097 57.521 -21.097 c 19.194 0 35.899 2.431 49.793 7.236 l -3.571 38.953 c -6.25 -1.078 -13.185 -1.622 -20.755 -1.622 c -14.334 0 -26.085 3.938 -34.926 11.708 c -9.255 8.122 -13.95 19.117 -13.95 32.674 v 34.394 h 65.417 v 41.57 h -65.417 v 207.735 H 661.131 z" stroke-linecap="round"/>
</g>
<g transform="matrix(0.114 0 0 0.114 67.7478 28.2078)" id="Layer_1">
<path style="stroke: none; stroke-width: 1; stroke-dasharray: none; stroke-linecap: butt; stroke-dashoffset: 0; stroke-linejoin: miter; stroke-miterlimit: 4; is-custom-font: none; font-file-url: none; fill: rgb(255,255,255); fill-rule: nonzero; opacity: 1;" transform=" translate(-873.1655, -1004.753)" d="M 845.389 1192.824 V 943.519 h 55.553 v 249.306 H 845.389 z M 873.415 885.216 c -10.397 0 -18.569 -3.119 -24.984 -9.533 c -6.416 -6.416 -9.535 -14.425 -9.535 -24.485 c 0 -10.357 3.175 -18.504 9.707 -24.905 c 6.594 -6.469 14.708 -9.612 24.813 -9.612 c 10.06 0 18.068 3.119 24.484 9.535 c 6.417 6.416 9.535 14.587 9.535 24.983 c 0 10.06 -3.118 18.069 -9.535 24.485 C 891.484 882.098 883.476 885.216 873.415 885.216 z" stroke-linecap="round"/>
</g>
<g transform="matrix(0.114 0 0 0.114 94.8506 35.1578)" id="Layer_1">
<path style="stroke: none; stroke-width: 1; stroke-dasharray: none; stroke-linecap: butt; stroke-dashoffset: 0; stroke-linejoin: miter; stroke-miterlimit: 4; is-custom-font: none; font-file-url: none; fill: rgb(255,255,255); fill-rule: nonzero; opacity: 1;" transform=" translate(-1110.857, -1065.675)" d="M 1178.458 1192.824 V 1045.45 c 0 -18.42 -6.395 -33.643 -19.008 -45.243 c -12.357 -11.358 -28.62 -17.115 -48.342 -17.115 c -20.019 0 -36.426 5.652 -48.769 16.8 c -12.663 11.435 -19.083 26.763 -19.083 45.558 v 147.374 h -55.553 V 943.519 h 38.166 l 25.116 43.954 l 9.965 -13.405 c 8.509 -11.449 19.375 -20.306 32.299 -26.329 c 13.13 -6.114 28.212 -9.214 44.823 -9.214 c 19.01 0 35.983 4.003 50.445 11.897 c 14.429 7.89 25.354 18.743 33.391 33.179 c 8.031 14.43 12.103 31.376 12.103 50.365 v 158.859 H 1178.458 z" stroke-linecap="round"/>
</g>
<g transform="matrix(0.114 0 0 0.114 132.4925 35.1578)" id="Layer_1">
<path style="stroke: none; stroke-width: 1; stroke-dasharray: none; stroke-linecap: butt; stroke-dashoffset: 0; stroke-linejoin: miter; stroke-miterlimit: 4; is-custom-font: none; font-file-url: none; fill: rgb(255,255,255); fill-rule: nonzero; opacity: 1;" transform=" translate(-1440.9335, -1065.675)" d="M 1508.533 1192.824 V 1045.45 c 0 -18.42 -6.395 -33.643 -19.008 -45.243 c -12.356 -11.358 -28.621 -17.115 -48.342 -17.115 c -20.019 0 -36.427 5.652 -48.769 16.8 c -12.663 11.435 -19.083 26.763 -19.083 45.558 v 147.374 h -55.552 V 943.519 h 38.165 l 25.117 43.954 l 9.964 -13.405 c 8.51 -11.449 19.376 -20.306 32.3 -26.329 c 13.129 -6.114 28.211 -9.214 44.822 -9.214 c 19.012 0 35.984 4.003 50.446 11.897 c 14.431 7.89 25.354 18.743 33.391 33.179 c 8.03 14.43 12.104 31.376 12.104 50.365 v 158.859 H 1508.533 z" stroke-linecap="round"/>
</g>
<g transform="matrix(0.114 0 0 0.114 165.3233 35.4423)" id="Layer_1">
<path style="stroke: none; stroke-width: 1; stroke-dasharray: none; stroke-linecap: butt; stroke-dashoffset: 0; stroke-linejoin: miter; stroke-miterlimit: 4; is-custom-font: none; font-file-url: none; fill: rgb(255,255,255); fill-rule: nonzero; opacity: 1;" transform=" translate(-1728.811, -1068.1705)" d="M 1722.321 1197.816 c -21.078 0 -39.997 -3.414 -56.236 -10.15 c -13.044 -5.41 -21.298 -10.155 -26.519 -13.966 l 18.599 -30.143 c 17.522 8.89 38.697 13.985 63.126 15.173 l 0.198 0.008 c 0.961 0.029 1.902 0.043 2.821 0.043 c 12.43 0 21.651 -2.628 28.191 -8.035 c 7.332 -6.074 11.203 -13.993 11.203 -22.9 c 0 -7.255 -2.53 -13.975 -7.52 -19.972 c -4.641 -5.563 -11.509 -9.888 -20.419 -12.861 l -30.517 -10.006 c -16.727 -5.464 -30.062 -10.708 -39.646 -15.585 c -8.605 -4.369 -15.457 -10.33 -20.956 -18.229 c -5.163 -7.407 -7.779 -17.741 -7.779 -30.71 c 0 -13.477 3.283 -26.656 9.764 -39.172 c 6.325 -12.228 16.439 -22.513 30.067 -30.575 c 13.702 -8.102 31.406 -12.211 52.611 -12.211 c 31.65 0 59.271 6.829 82.275 20.322 l -21.005 32.638 c -18.099 -9.22 -36.818 -13.886 -55.776 -13.886 c -12.337 0 -21.775 2.33 -28.849 7.124 c -8.2 5.549 -12.536 13.6 -12.536 23.276 c 0 8.469 3.442 15.969 9.958 21.689 c 5.37 4.738 13.132 8.576 23.705 11.719 l 29.265 9.424 c 22.748 7.697 39.527 17.215 49.872 28.293 c 9.645 10.338 14.537 25.555 14.537 45.227 c 0 14.716 -3.954 27.209 -12.086 38.192 c -8.252 11.147 -19.81 19.851 -34.35 25.869 C 1759.237 1194.652 1741.741 1197.816 1722.321 1197.816 z" stroke-linecap="round"/>
</g>
<g transform="matrix(0.114 0 0 0.114 195.3468 35.4422)" id="Layer_1">
<path style="stroke: none; stroke-width: 1; stroke-dasharray: none; stroke-linecap: butt; stroke-dashoffset: 0; stroke-linejoin: miter; stroke-miterlimit: 4; is-custom-font: none; font-file-url: none; fill: rgb(255,255,255); fill-rule: nonzero; opacity: 1;" transform=" translate(-1992.09, -1068.17)" d="M 2014.94 1197.816 c -27.034 0 -51.017 -5.451 -71.282 -16.204 c -20.015 -10.61 -35.767 -25.816 -46.814 -45.197 c -11.143 -19.524 -16.791 -42.568 -16.791 -68.494 c 0 -25.56 5.722 -48.419 17.008 -67.938 c 11.207 -19.39 27.127 -34.611 47.315 -45.24 c 20.451 -10.761 44.694 -16.219 72.063 -16.219 c 16.028 0 31.73 2.577 46.669 7.658 c 11.241 3.825 21.757 8.975 31.38 15.364 l -29.207 35.249 c -13.35 -9.101 -29.225 -13.702 -47.344 -13.702 c -23.708 0 -43.206 8.064 -57.948 23.971 c -14.523 15.671 -21.888 36.313 -21.888 61.356 c 0 24.723 7.366 45.198 21.892 60.86 c 14.731 15.903 34.228 23.97 57.944 23.97 c 23.065 0 42.067 -6.039 56.662 -17.973 l 29.528 34.562 c -9.895 8.157 -21.348 14.57 -34.166 19.119 C 2053.393 1194.836 2034.881 1197.816 2014.94 1197.816 z" stroke-linecap="round"/>
</g>
<g transform="matrix(0.114 0 0 0.114 226.4253 35.4422)" id="Layer_1">
<path style="stroke: none; stroke-width: 1; stroke-dasharray: none; stroke-linecap: butt; stroke-dashoffset: 0; stroke-linejoin: miter; stroke-miterlimit: 4; is-custom-font: none; font-file-url: none; fill: rgb(255,255,255); fill-rule: nonzero; opacity: 1;" transform=" translate(-2264.613, -1068.1695)" d="M 2235.65 1197.816 c -26.065 0 -46.292 -6.834 -61.831 -20.895 c -15.222 -13.77 -22.622 -31.455 -22.622 -54.07 c 0 -14.757 4.057 -27.523 12.4 -39.029 c 8.41 -11.599 20.621 -20.777 36.295 -27.285 c 16.231 -6.734 35.32 -10.15 56.731 -10.15 c 16.829 0 34.253 1.777 51.792 5.281 l 13.063 2.611 v -21.321 l -0.048 -0.507 c -1.623 -17.418 -8.942 -31.176 -21.752 -40.895 c -12.229 -9.264 -28.729 -13.958 -49.047 -13.958 c -21.557 0 -40.936 5.166 -57.76 15.37 l -20.287 -28.277 c 12.115 -7.849 25.061 -13.946 38.605 -18.174 c 17.009 -5.305 37 -7.994 59.414 -7.994 c 21.172 0 40.219 4.077 56.613 12.117 c 16.034 7.874 28.648 19.037 37.493 33.185 c 8.837 14.141 13.32 30.843 13.32 49.639 v 159.359 h -38.044 l -24.676 -44.924 l -10.114 13.995 c -7.702 10.656 -17.549 19.444 -29.263 26.118 C 2264.513 1194.519 2250.958 1197.816 2235.65 1197.816 z M 2266.611 1077.471 c -15.887 0 -29.179 3.698 -39.506 10.988 c -11.355 8.016 -17.357 19.392 -17.357 32.894 c 0 13.572 4.536 24.407 13.483 32.205 c 8.498 7.415 20.071 11.179 34.393 11.179 c 17.68 0 33.104 -6.767 45.85 -20.107 c 12.61 -13.202 19.005 -30.439 19.005 -51.24 v -9.025 l -8.863 -1.701 C 2295.678 1079.219 2279.865 1077.471 2266.611 1077.471 z" stroke-linecap="round"/>
</g>
<g transform="matrix(0.114 0 0 0.114 262.8993 35.1578)" id="Layer_1">
<path style="stroke: none; stroke-width: 1; stroke-dasharray: none; stroke-linecap: butt; stroke-dashoffset: 0; stroke-linejoin: miter; stroke-miterlimit: 4; is-custom-font: none; font-file-url: none; fill: rgb(255,255,255); fill-rule: nonzero; opacity: 1;" transform=" translate(-2584.4515, -1065.675)" d="M 2652.053 1192.824 V 1045.45 c 0 -18.42 -6.395 -33.643 -19.01 -45.243 c -12.355 -11.358 -28.62 -17.115 -48.342 -17.115 c -20.018 0 -36.427 5.652 -48.77 16.8 c -12.661 11.435 -19.082 26.763 -19.082 45.558 v 147.374 h -55.551 V 943.519 h 38.164 l 25.116 43.954 l 9.964 -13.405 c 8.51 -11.449 19.379 -20.306 32.301 -26.329 c 13.129 -6.114 28.211 -9.214 44.822 -9.214 c 19.011 0 35.984 4.003 50.445 11.897 c 14.43 7.89 25.354 18.743 33.391 33.179 c 8.031 14.43 12.104 31.376 12.104 50.365 v 158.859 H 2652.053 z" stroke-linecap="round"/>
</g>
</svg>