<svg xmlns="http://www.w3.org/2000/svg" xmlns:xlink="http://www.w3.org/1999/xlink" version="1.1" width="1000" height="1000" viewBox="0 0 1000 1000" xml:space="preserve">
<desc>Created with Fabric.js 3.5.0</desc>
<defs>
</defs>
<rect x="0" y="0" width="100%" height="100%" fill="rgba(255,255,255,0)"/>
<g transform="matrix(0.6273 0 0 0.6273 809.7243 459.8592)" id="Layer_1">
<rect style="stroke: none; stroke-width: 1; stroke-dasharray: none; stroke-linecap: butt; stroke-dashoffset: 0; stroke-linejoin: miter; stroke-miterlimit: 4; is-custom-font: none; font-file-url: none; fill: rgb(255,255,255); fill-rule: nonzero; opacity: 1;" x="-114.114" y="-100.8695" rx="0" ry="0" width="228.228" height="201.739"/>
</g>
<g transform="matrix(0.6273 0 0 0.6273 492.2657 507.1245)" id="Layer_1">
<path style="stroke: none; stroke-width: 1; stroke-dasharray: none; stroke-linecap: butt; stroke-dashoffset: 0; stroke-linejoin: miter; stroke-miterlimit: 4; is-custom-font: none; font-file-url: none; fill: rgb(255,255,255); fill-rule: nonzero; opacity: 1;" transform=" translate(-1506.4013, -1001.22)" d="M 2126.653 431.543 c 0 0 -306.929 7.873 -275.447 393.5 c -0.228 58.359 -1.203 116.806 -0.88 175.181 c 0.558 100.693 -2.296 201.398 -2.093 302.039 c 0.12 59.706 -3.244 127.777 -22.851 184.735 c -11.332 32.916 -31.877 61.526 -51.06 90.24 c -50.638 75.803 -114.643 136.104 -200.521 170.227 c -60.106 23.884 -130.339 32.418 -194.795 29.841 c 0 0 -306.926 47.221 -480.066 -330.535 c -6.122 -13.359 -5.832 -34.601 -7.628 -48.801 c -5.496 -43.469 -7.097 -87.493 -2.381 -131.114 c 12.969 -119.999 67.524 -255.965 159.997 -336.039 c 34.98 -30.292 76.047 -52.066 119.447 -67.679 c 71.368 -25.669 136.74 -39.73 212.782 -38.446 c 62.256 1.054 124.504 0.08 186.769 0.361 c 1.57 0.008 39.312 0.157 39.312 -0.01 c 0 0.018 0 201.739 0 201.739 c -99.754 0 -204.431 -9.613 -303.531 1.093 c -125.104 13.514 -207.367 148.551 -213.944 263.661 c 0 0 2.951 241.985 185.915 271.501 c 103.719 16.729 230.755 15.269 304.922 -73.905 c 48.564 -58.397 60.602 -139.809 58.931 -212.485 c -1.32 -57.465 2.043 -115.195 2.111 -172.706 c 0.148 -126.552 4.231 -253.113 4.859 -379.67 c 0.145 -28.227 -0.368 -56.728 1.017 -84.921 c 0.008 -0.144 19.908 -404.3 479.136 -416.105 V 431.543 z" stroke-linecap="round"/>
</g>
<g transform="matrix(0.6273 0 0 0.6273 410.4618 691.053)" id="Layer_1">
<circle style="stroke: none; stroke-width: 1; stroke-dasharray: none; stroke-linecap: butt; stroke-dashoffset: 0; stroke-linejoin: miter; stroke-miterlimit: 4; is-custom-font: none; font-file-url: none; fill: rgb(255,51,51); fill-rule: nonzero; opacity: 1;" cx="0" cy="0" r="144.454"/>
</g>
</svg>